<?xml version="1.0" encoding="utf-8"?>
<!-- Generator: Adobe Illustrator 16.0.0, SVG Export Plug-In . SVG Version: 6.00 Build 0)  -->
<!DOCTYPE svg PUBLIC "-//W3C//DTD SVG 1.1//EN" "http://www.w3.org/Graphics/SVG/1.1/DTD/svg11.dtd">
<svg version="1.1" id="Layer_1" xmlns="http://www.w3.org/2000/svg" xmlns:xlink="http://www.w3.org/1999/xlink" x="0px" y="0px"
	 width="303.707px" height="146.014px" viewBox="0 0 303.707 146.014" enable-background="new 0 0 303.707 146.014"
	 xml:space="preserve">
<path fill-rule="evenodd" clip-rule="evenodd" fill="#CD162C" d="M153.955,51.542l14.113-24.478L215.815,24l1.666-2.969
	l-44.168-3.088l10.328-17.937L265.551,0c25.188,0,43.82,9.006,36.579,35.489c-2.177,8.026-12.419,28.223-42.442,36.683
	c6.368,0.759,22.242,7.791,19.51,26.024c-4.859,32.334-46.721,47.725-70.009,47.731l-96.697,0.048l-4.767-18.711l50.649-3.569
	l1.72-2.961l-54.938-3.348l-5.915-22.177l78.163-4.561l1.702-2.938L38.675,78.848l6.727-11.677l151.159-9.813l1.712-2.942
	L153.955,51.542z M217.2,56.397l13.972-0.09c9.3-0.049,18.997-4.303,22.543-12.933c3.272-8.004-1.123-14.823-6.953-14.8
	l-13.515-0.017L217.2,56.397z M201.162,84.282l-16.816,29.15h16.016c7.424,0,20.723-3.702,24.813-14.271
	c3.793-9.823-3.181-14.892-8.04-14.892L201.162,84.282z M79.179,129.267l-9.701,16.673L0,146.014l6.729-11.678L79.179,129.267z
	 M84.087,0.006l55.852,0.04l4.212,15.832l-66.784-4.191L84.087,0.006z M147.342,28.387l6.091,23.155L58.02,45.269l6.729-11.68
	L147.342,28.387z M98.731,95.238l-12.149,20.981l-67.241-3.785l6.732-11.682L98.731,95.238z"/>
</svg>
