<?xml version="1.0" encoding="utf-8"?>
<!-- Generator: Adobe Illustrator 21.0.0, SVG Export Plug-In . SVG Version: 6.00 Build 0)  -->
<svg version="1.1" id="Capa_1" xmlns="http://www.w3.org/2000/svg" xmlns:xlink="http://www.w3.org/1999/xlink" x="0px" y="0px"
	 viewBox="0 0 32.5 34" style="enable-background:new 0 0 32.5 34;" xml:space="preserve">
<style type="text/css">
	.st0{fill:#171717;}
	.st1{fill:#161616;}
</style>
<g>
	<g>
		<path class="st0" d="M25.1,7.7h-5.7v-3c0-1.2-1-2.2-2.2-2.2h-3.5c-1.2,0-2.2,1-2.2,2.2v3H5.9C5.4,7.7,5,8.1,5,8.6v19.1
			c0,0.5,0.4,0.9,0.9,0.9h19.2c0.5,0,0.9-0.4,0.9-0.9V8.6C26,8.1,25.6,7.7,25.1,7.7z M12.4,4.7c0-0.7,0.6-1.3,1.3-1.3h3.5
			c0.7,0,1.3,0.6,1.3,1.3v3h-6.1V4.7z M25.1,27.6H5.9V8.6h5.7v1.3c0,0.2,0.2,0.4,0.4,0.4c0.2,0,0.4-0.2,0.4-0.4V8.6h6.1v1.3
			c0,0.2,0.2,0.4,0.4,0.4c0.2,0,0.4-0.2,0.4-0.4V8.6h5.7L25.1,27.6z"/>
	</g>
</g>
<g>
	<path class="st1" d="M15.1,22.4h-1.7l-2.3-5.9h0L10,22.4H8.4l1.5-8.2h1.7l2.3,5.9h0l1.1-5.9h1.5L15.1,22.4z"/>
	<path class="st1" d="M21.3,18c0.7,0.3,1.1,0.7,1.1,1.5c0,1-0.6,1.9-1.4,2.5c-0.6,0.4-1.5,0.5-2.2,0.5h-2.2l1.5-8.2h1.8
		c0.8,0,1.7,0,2.2,0.6c0.3,0.3,0.4,0.8,0.4,1.2C22.6,16.9,22.1,17.6,21.3,18z M19.6,18.8h-0.8L18.4,21h0.8c0.8,0,1.7-0.3,1.7-1.3
		C20.9,19,20.2,18.8,19.6,18.8z M20,15.7h-0.6L19,17.4h0.5c0.7,0,1.4-0.2,1.4-1.1C21,15.8,20.5,15.7,20,15.7z"/>
</g>
</svg>
